<svg width="168" height="35" viewBox="0 0 168 35" fill="none" xmlns="http://www.w3.org/2000/svg">
<path fill-rule="evenodd" clip-rule="evenodd" d="M44.394 11.073L45.524 8.36601L46.641 11.073H44.394ZM44.7656 6.34924L41.3242 14.3851H43.0454L43.7914 12.5661H47.2445L47.9919 14.3851H49.756L46.3243 6.34924H44.7656Z" fill="#2E55A6"/>
<path fill-rule="evenodd" clip-rule="evenodd" d="M51.2794 7.88331H55.5893L51.1387 13.1137V14.385H57.7587V12.9039H53.3091L57.7587 7.67669V6.40442H51.2794V7.88331Z" fill="#2E55A6"/>
<path fill-rule="evenodd" clip-rule="evenodd" d="M62.8414 13.0029C61.6461 13.0029 60.9127 12.1824 60.759 11.0855H64.9796C64.7704 12.2253 63.9796 13.0029 62.8414 13.0029ZM62.7307 6.27283C61.1625 6.27283 60.0792 6.87597 59.3442 7.75203L60.419 8.83752C61.0871 8.1593 61.7663 7.81828 62.7307 7.81828C63.8276 7.81828 64.7158 8.46592 64.9681 9.65929H58.971C58.9606 9.85777 58.9492 9.97761 58.9492 10.1966V10.2199C58.9492 12.4893 60.2092 14.5162 62.8414 14.5162C65.1551 14.5162 66.8099 12.6635 66.8099 10.395V10.3622C66.8099 7.94886 65.0336 6.27283 62.7307 6.27283Z" fill="#2E55A6"/>
<path fill-rule="evenodd" clip-rule="evenodd" d="M71.9219 10.2957H70.0808V7.92852H71.887C72.7764 7.92852 73.3238 8.33356 73.3238 9.10206V9.1238C73.3238 9.82415 72.798 10.2957 71.9219 10.2957ZM75.0231 9.03454V9.01337C75.0231 8.27806 74.7936 7.65375 74.3543 7.21432C73.8292 6.68937 73.0396 6.40417 72.0313 6.40417H68.4043V14.3851H70.0808V11.7867H71.5379L73.304 14.3851H75.2774L73.2824 11.5024C74.3098 11.1402 75.0231 10.3289 75.0231 9.03454Z" fill="#2E55A6"/>
<path fill-rule="evenodd" clip-rule="evenodd" d="M81.9984 11.995C81.9984 12.6086 81.505 12.9039 80.6925 12.9039H78.5545V11.0635H80.627C81.5711 11.0635 81.9984 11.4026 81.9984 11.9739V11.995ZM78.5545 7.88266H80.3524C81.1198 7.88266 81.5482 8.20156 81.5482 8.73883V8.76121C81.5482 9.38584 81.0435 9.65934 80.2437 9.65934H78.5545V7.88266ZM82.1617 10.2196C82.7339 9.90067 83.2241 9.3969 83.2241 8.48739V8.46565C83.2241 7.91706 83.0505 7.47788 82.6875 7.10533C82.2272 6.65674 81.505 6.40466 80.5946 6.40466H76.9219V14.3844H80.6925C82.4917 14.3844 83.6755 13.6503 83.6755 12.1928V12.1714C83.6755 11.0959 83.083 10.5591 82.1617 10.2196Z" fill="#2E55A6"/>
<path fill-rule="evenodd" clip-rule="evenodd" d="M87.8793 11.073L89.0071 8.36601L90.1254 11.073H87.8793ZM88.2525 6.34924L84.8086 14.3851H86.5302L87.2753 12.5661H90.7281L91.4738 14.3851H93.2393L89.8069 6.34924H88.2525Z" fill="#2E55A6"/>
<path fill-rule="evenodd" clip-rule="evenodd" d="M96.1176 9.67008L94.1557 6.40466H92.1816L95.2612 11.2379V14.385H96.9498V11.2061L100.041 6.40466H98.124L96.1176 9.67008Z" fill="#2E55A6"/>
<path fill-rule="evenodd" clip-rule="evenodd" d="M104.419 12.9716C103.015 12.9716 102.041 11.7974 102.041 10.3952V10.3738C102.041 8.96904 103.038 7.81852 104.419 7.81852C105.241 7.81852 105.878 8.17091 106.502 8.73902L107.576 7.5002C106.832 6.76584 105.933 6.27307 104.429 6.27307C101.986 6.27307 100.275 8.12546 100.275 10.3952V10.417C100.275 12.7076 102.019 14.5161 104.363 14.5161C105.899 14.5161 106.809 13.9694 107.632 13.1019L106.556 12.017C105.922 12.5981 105.352 12.9716 104.419 12.9716Z" fill="#2E55A6"/>
<path fill-rule="evenodd" clip-rule="evenodd" d="M111.685 11.073L112.816 8.36601L113.933 11.073H111.685ZM112.057 6.34924L108.615 14.3851H110.337L111.083 12.5661H114.536L115.282 14.3851H117.046L113.616 6.34924H112.057Z" fill="#2E55A6"/>
<path fill-rule="evenodd" clip-rule="evenodd" d="M123.801 6.40503V11.4357L119.954 6.40503H118.408V14.3853H120.063V9.18931L124.033 14.3853H125.468V6.40503H123.801Z" fill="#2E55A6"/>
<path fill-rule="evenodd" clip-rule="evenodd" d="M46.4738 24.6528C46.4738 25.2758 45.9742 25.5761 45.1511 25.5761H42.9823V23.7079H45.0843C46.0401 23.7079 46.4738 24.0521 46.4738 24.6309V24.6528ZM42.9823 20.4823H44.8069C45.5845 20.4823 46.0193 20.8047 46.0193 21.3495V21.3722C46.0193 22.0057 45.5066 22.2836 44.6956 22.2836H42.9823V20.4823ZM46.6413 22.8511C47.2199 22.5281 47.7196 22.017 47.7196 21.094V21.0722C47.7196 20.5163 47.5423 20.0713 47.1751 19.693C46.7076 19.2372 45.9742 18.9813 45.0505 18.9813H41.3242V27.0771H45.1511C46.9748 27.0771 48.1761 26.3323 48.1761 24.8524V24.8306C48.1761 23.7407 47.5748 23.1962 46.6413 22.8511Z" fill="#2E55A6"/>
<path fill-rule="evenodd" clip-rule="evenodd" d="M51.3185 23.763H55.1889V22.2406H51.3185V20.5052H55.7103V18.9818H49.627V27.0772H55.7653V25.5538H51.3185V23.763Z" fill="#2E55A6"/>
<path fill-rule="evenodd" clip-rule="evenodd" d="M60.9395 22.2956L58.9485 18.9813H56.9473L60.0716 23.8852V27.0767H61.7849V23.853L64.9207 18.9813H62.9752L60.9395 22.2956Z" fill="#2E55A6"/>
<path fill-rule="evenodd" clip-rule="evenodd" d="M71.8495 24.0858L67.9447 18.9813H66.377V27.0767H68.0566V21.8057L72.0828 27.0767H73.5387V18.9813H71.8495V24.0858Z" fill="#2E55A6"/>
<path fill-rule="evenodd" clip-rule="evenodd" d="M79.1863 25.6764C77.9739 25.6764 77.2288 24.8427 77.0737 23.73H81.3549C81.1438 24.8874 80.3427 25.6764 79.1863 25.6764ZM79.075 18.8479C77.4844 18.8479 76.3826 19.4589 75.6382 20.3495L76.7285 21.4505C77.4068 20.7615 78.0966 20.4164 79.075 20.4164C80.187 20.4164 81.0866 21.0725 81.3441 22.2839H75.2605C75.2497 22.4849 75.2383 22.6073 75.2383 22.829V22.8514C75.2383 25.1534 76.5174 27.2108 79.1863 27.2108C81.5322 27.2108 83.2113 25.3313 83.2113 23.0294V22.9966C83.2113 20.5495 81.4095 18.8479 79.075 18.8479Z" fill="#2E55A6"/>
<path fill-rule="evenodd" clip-rule="evenodd" d="M86.6114 18.9813H84.9102V27.0767H90.6936V25.5206H86.6114V18.9813Z" fill="#2E55A6"/>
<path fill-rule="evenodd" clip-rule="evenodd" d="M99.4935 18.9813H97.5475L95.768 21.6719L94.0101 18.9813H92.0081L94.7336 22.9622L91.8867 27.0767H93.8328L95.7229 24.23L97.6021 27.0767H99.6041L96.7687 22.9294L99.4935 18.9813Z" fill="#2E55A6"/>
<path fill-rule="evenodd" clip-rule="evenodd" d="M103.912 23.7193L105.058 20.9725L106.192 23.7193H103.912ZM104.29 18.9264L100.799 27.0774H102.545L103.301 25.2316H106.804L107.561 27.0774H109.351L105.87 18.9264H104.29Z" fill="#2E55A6"/>
<path fill-rule="evenodd" clip-rule="evenodd" d="M112.473 18.9813H110.771V27.0767H116.555V25.5206H112.473V18.9813Z" fill="#2E55A6"/>
<path fill-rule="evenodd" clip-rule="evenodd" d="M123.763 23.0518C123.763 23.4855 123.675 23.8965 123.507 24.2531L122.162 23.0294L121.073 24.2531L122.406 25.3979C122.073 25.5537 121.694 25.6423 121.273 25.6423C119.805 25.6423 118.758 24.4528 118.758 23.0294V23.0067C118.758 21.5836 119.783 20.4164 121.25 20.4164C122.718 20.4164 123.763 21.606 123.763 23.0294V23.0518ZM125.553 23.0294V23.0067C125.553 20.7056 123.763 18.8479 121.273 18.8479C118.781 18.8479 116.969 20.7378 116.969 23.0294V23.0518C116.969 25.3537 118.758 27.2108 121.25 27.2108C122.162 27.2108 122.986 26.9433 123.663 26.4991L124.575 27.3219L125.665 26.1089L124.82 25.3868C125.287 24.7089 125.553 23.8965 125.553 23.0294Z" fill="#2E55A6"/>
<path fill-rule="evenodd" clip-rule="evenodd" d="M135.958 24.6528C135.958 25.2758 135.458 25.5761 134.635 25.5761H132.467V23.7079H134.568C135.525 23.7079 135.958 24.0521 135.958 24.6309V24.6528ZM132.467 20.4823H134.29C135.069 20.4823 135.502 20.8047 135.502 21.3495V21.3722C135.502 22.0057 134.991 22.2836 134.179 22.2836H132.467V20.4823ZM136.125 22.8511C136.703 22.5281 137.204 22.017 137.204 21.094V21.0722C137.204 20.5163 137.027 20.0713 136.66 19.693C136.192 19.2372 135.458 18.9813 134.535 18.9813H130.809V27.0771H134.635C136.46 27.0771 137.66 26.3323 137.66 24.8524V24.8306C137.66 23.7407 137.059 23.1962 136.125 22.8511Z" fill="#2E55A6"/>
<path fill-rule="evenodd" clip-rule="evenodd" d="M141.65 23.7193L142.797 20.9725L143.931 23.7193H141.65ZM142.029 18.9264L138.537 27.0774H140.284L141.039 25.2316H144.542L145.298 27.0774H147.089L143.609 18.9264H142.029Z" fill="#2E55A6"/>
<path fill-rule="evenodd" clip-rule="evenodd" d="M153.937 24.0858L150.035 18.9813H148.465V27.0767H150.145V21.8057L154.171 27.0767H155.628V18.9813H153.937V24.0858Z" fill="#2E55A6"/>
<path fill-rule="evenodd" clip-rule="evenodd" d="M164.875 18.9813H162.774L159.392 22.6287V18.9813H157.691V27.0767H159.392V24.6313L160.393 23.5966L162.962 27.0767H165.02L161.55 22.4287L164.875 18.9813Z" fill="#2E55A6"/>
<path fill-rule="evenodd" clip-rule="evenodd" d="M166.287 27.0767H168V18.9813H166.287V27.0767Z" fill="#2E55A6"/>
<path fill-rule="evenodd" clip-rule="evenodd" d="M25.8483 23.7523C25.719 22.9319 25.5086 22.1453 25.2164 21.4033C24.4811 21.6341 23.7263 21.7886 22.9575 21.8601L21.9531 21.9529L21.8605 22.9577C21.5672 26.1128 19.9085 29.0432 17.1645 31.2918C16.4806 30.7303 15.8638 30.1274 15.3189 29.4884C14.5392 29.8354 13.7272 30.1205 12.8869 30.3376C13.8544 31.6162 15.0466 32.7874 16.4489 33.8094L17.1645 34.3307L17.8807 33.8094C21.3286 31.2976 23.5285 27.8989 24.1547 24.1544C24.7279 24.0582 25.2932 23.9212 25.8483 23.7523ZM18.6474 27.963C19.1354 27.2922 19.5436 26.5864 19.8617 25.8554C19.179 25.4974 18.5357 25.073 17.9411 24.581L17.1648 23.9366L16.3883 24.581C13.9504 26.6053 10.7067 27.504 7.17664 27.1542C7.08833 26.2734 7.07956 25.4107 7.14523 24.5735C6.3493 24.2677 5.57276 23.8951 4.826 23.4542C4.6058 25.0429 4.62043 26.7138 4.88956 28.4281L5.02679 29.3025L5.90173 29.4403C10.1153 30.1027 14.0751 29.2546 17.1648 27.05C17.6381 27.3875 18.1349 27.6896 18.6474 27.963ZM27.9635 15.6823C27.2918 15.1943 26.5867 14.7874 25.8554 14.4694C25.498 15.1512 25.0738 15.7951 24.5802 16.3886L23.9367 17.165L24.5802 17.941C26.6049 20.3788 27.5043 23.6225 27.1543 27.1542C26.2735 27.2407 25.4105 27.2505 24.5736 27.1838C24.2675 27.9821 23.8947 28.7568 23.4538 29.5046C25.0424 29.7251 26.7136 29.7096 28.4279 29.4403L29.3028 29.3031L29.4398 28.4278C30.1028 24.2142 29.2549 20.2549 27.0495 17.165C27.3878 16.691 27.6899 16.1948 27.9635 15.6823ZM33.8094 16.449C31.2979 13.0016 27.8987 10.8015 24.1547 10.1757C24.0587 9.60127 23.9213 9.03698 23.7526 8.48088C22.9323 8.61064 22.1453 8.82101 21.4031 9.11352C21.6334 9.84941 21.7884 10.6042 21.8605 11.3725L21.9531 12.3769L22.9577 12.4703C26.1129 12.7636 29.043 14.4199 31.2913 17.1647C30.7307 17.8495 30.1267 18.4662 29.4885 19.0111C29.8349 19.7914 30.1206 20.6038 30.3373 21.4434C31.6159 20.4756 32.7874 19.2834 33.8094 17.8803L34.3307 17.1647L33.8094 16.449ZM15.6819 6.36719C15.1942 7.03868 14.7876 7.74366 14.469 8.47478C15.1516 8.8322 15.7952 9.2558 16.3883 9.7494L17.1645 10.393L17.9411 9.7494C20.3792 7.7251 23.6229 6.82621 27.1543 7.1767C27.2404 8.05671 27.25 8.91943 27.1838 9.75684C27.9817 10.0622 28.7574 10.4345 29.5047 10.876C29.7254 9.28721 29.7099 7.61658 29.4398 5.90178L29.3028 5.02683L28.4279 4.89014C24.2138 4.22794 20.2545 5.0755 17.1645 7.28071C16.6914 6.94217 16.1949 6.64031 15.6819 6.36719ZM8.48107 10.5784C8.61058 11.398 8.82203 12.1838 9.11346 12.9261C9.8496 12.6974 10.6038 12.5416 11.3724 12.47L12.3766 12.3764L12.4704 11.3725C12.7635 8.2173 14.4203 5.28718 17.1645 3.03838C17.8493 3.59952 18.4658 4.20267 19.0109 4.8412C19.7912 4.49468 20.6034 4.20853 21.4435 3.99258C20.4758 2.71313 19.2833 1.54353 17.8807 0.521511L17.1645 0L16.4489 0.521511C13.002 3.03306 10.8017 6.43045 10.1757 10.176C9.60178 10.272 9.03659 10.4089 8.48107 10.5784ZM10.5786 25.8487C11.3979 25.7192 12.1843 25.5086 12.9263 25.2166C12.6968 24.4813 12.5414 23.7262 12.4704 22.9579L12.3766 21.9532L11.3718 21.8601C8.21755 21.5676 5.28688 19.9092 3.03863 17.1647C3.59949 16.4809 4.20317 15.8639 4.84169 15.319C4.49517 14.539 4.20902 13.7271 3.99308 12.8867C2.71364 13.8545 1.54298 15.0467 0.521507 16.4488L0 17.1647L0.521507 17.8803C3.03278 21.3282 6.43096 23.5281 10.1757 24.1544C10.2722 24.7281 10.4094 25.2932 10.5786 25.8487ZM6.36688 18.6473C7.03861 19.1355 7.7436 19.5432 8.47472 19.8613C8.83239 19.1789 9.25599 18.5356 9.74883 17.941L10.3934 17.1647L9.74883 16.3886C7.72554 13.9508 6.82557 10.7068 7.17638 7.17644C8.0569 7.08865 8.91962 7.07911 9.75678 7.14561C10.0621 6.34936 10.4347 5.57227 10.8764 4.82577C9.28715 4.60557 7.61651 4.62047 5.90173 4.89014L5.02679 5.02656L4.88956 5.90178C4.22817 10.1151 5.07546 14.0753 7.28115 17.1647C6.94261 17.6383 6.64025 18.1343 6.36688 18.6473Z" fill="#2E55A6"/>
</svg>
