<?xml version="1.0" encoding="utf-8"?>
<!-- Generator: Adobe Illustrator 16.0.0, SVG Export Plug-In . SVG Version: 6.00 Build 0)  -->
<!DOCTYPE svg PUBLIC "-//W3C//DTD SVG 1.1//EN" "http://www.w3.org/Graphics/SVG/1.1/DTD/svg11.dtd">
<svg version="1.1" id="Layer_1" xmlns="http://www.w3.org/2000/svg" xmlns:xlink="http://www.w3.org/1999/xlink" x="0px" y="0px"
	 width="286.431px" height="75.671px" viewBox="42.085 275.898 286.431 75.671"
	 enable-background="new 42.085 275.898 286.431 75.671" xml:space="preserve">
<title>xalq bank</title>
<desc>Created with Sketch.</desc>
<g>
	<path d="M68.26,337.103h5.104v0.271h-0.254c-0.385,0-0.648,0.04-0.792,0.12s-0.246,0.19-0.307,0.332
		c-0.061,0.141-0.091,0.493-0.091,1.057v4.842c0,0.885,0.067,1.471,0.2,1.757c0.135,0.287,0.354,0.525,0.66,0.715
		c0.306,0.189,0.692,0.284,1.16,0.284c0.535,0,0.99-0.12,1.367-0.36c0.377-0.241,0.658-0.572,0.845-0.995
		c0.188-0.424,0.281-1.16,0.281-2.21v-4.032c0-0.442-0.047-0.758-0.139-0.947c-0.092-0.19-0.209-0.321-0.349-0.395
		c-0.219-0.111-0.527-0.167-0.926-0.167v-0.271h3.419v0.271h-0.205c-0.277,0-0.508,0.056-0.693,0.167
		c-0.184,0.112-0.318,0.28-0.4,0.504c-0.062,0.155-0.094,0.435-0.094,0.838v3.755c0,1.162-0.078,2.001-0.23,2.516
		c-0.152,0.516-0.525,0.989-1.119,1.422c-0.594,0.433-1.402,0.649-2.428,0.649c-0.856,0-1.517-0.114-1.984-0.343
		c-0.637-0.311-1.086-0.71-1.349-1.196c-0.262-0.485-0.394-1.14-0.394-1.961v-4.842c0-0.568-0.032-0.922-0.095-1.061
		c-0.063-0.139-0.173-0.249-0.328-0.332c-0.156-0.083-0.442-0.121-0.86-0.116V337.103z"/>
	<path d="M92.283,336.877v3.485h-0.27c-0.326-0.953-0.814-1.677-1.467-2.173c-0.65-0.496-1.363-0.744-2.135-0.744
		c-0.74,0-1.355,0.208-1.846,0.624c-0.49,0.415-0.838,0.995-1.043,1.738c-0.203,0.744-0.307,1.508-0.307,2.29
		c0,0.948,0.113,1.779,0.336,2.493c0.225,0.715,0.584,1.24,1.082,1.575c0.5,0.336,1.092,0.503,1.777,0.503
		c0.236,0,0.48-0.025,0.732-0.076c0.25-0.051,0.506-0.125,0.77-0.223v-2.056c0-0.389-0.027-0.641-0.08-0.755
		c-0.055-0.114-0.164-0.218-0.332-0.31c-0.168-0.093-0.371-0.139-0.609-0.139h-0.256v-0.27h4.805v0.27
		c-0.363,0.024-0.617,0.074-0.762,0.149c-0.143,0.075-0.254,0.2-0.332,0.375c-0.043,0.093-0.064,0.318-0.064,0.679v2.056
		c-0.633,0.282-1.289,0.495-1.973,0.639c-0.684,0.143-1.391,0.215-2.125,0.215c-0.939,0-1.717-0.128-2.338-0.383
		c-0.619-0.255-1.166-0.591-1.641-1.006c-0.473-0.416-0.844-0.884-1.111-1.404c-0.34-0.671-0.51-1.422-0.51-2.253
		c0-1.487,0.521-2.744,1.566-3.77s2.361-1.539,3.945-1.539c0.49,0,0.934,0.039,1.326,0.117c0.215,0.039,0.561,0.149,1.039,0.332
		c0.48,0.182,0.764,0.273,0.85,0.273c0.137,0,0.264-0.05,0.379-0.149c0.117-0.1,0.225-0.288,0.322-0.565H92.283z M89.746,333.924
		h0.473c-0.033,0.69-0.268,1.252-0.699,1.685c-0.434,0.433-0.932,0.648-1.494,0.648c-0.561,0-1.059-0.216-1.496-0.648
		s-0.678-0.994-0.721-1.685h0.48c0.121,0.306,0.312,0.537,0.572,0.692c0.26,0.156,0.629,0.233,1.105,0.233
		c0.539,0,0.938-0.075,1.195-0.226C89.42,334.473,89.615,334.24,89.746,333.924z"/>
	<path d="M97.23,337.103h5.104v0.271h-0.254c-0.385,0-0.648,0.04-0.791,0.12c-0.145,0.08-0.246,0.19-0.307,0.332
		c-0.061,0.141-0.092,0.493-0.092,1.057v4.842c0,0.885,0.066,1.471,0.201,1.757c0.133,0.287,0.354,0.525,0.66,0.715
		c0.305,0.189,0.691,0.284,1.158,0.284c0.535,0,0.99-0.12,1.367-0.36c0.377-0.241,0.658-0.572,0.846-0.995
		c0.188-0.424,0.281-1.16,0.281-2.21v-4.032c0-0.442-0.047-0.758-0.139-0.947c-0.092-0.19-0.209-0.321-0.35-0.395
		c-0.219-0.111-0.527-0.167-0.926-0.167v-0.271h3.42v0.271h-0.205c-0.277,0-0.508,0.056-0.693,0.167
		c-0.184,0.112-0.318,0.28-0.4,0.504c-0.062,0.155-0.094,0.435-0.094,0.838v3.755c0,1.162-0.078,2.001-0.23,2.516
		c-0.152,0.516-0.525,0.989-1.119,1.422s-1.402,0.649-2.428,0.649c-0.855,0-1.518-0.114-1.984-0.343
		c-0.637-0.311-1.086-0.71-1.348-1.196c-0.264-0.485-0.395-1.14-0.395-1.961v-4.842c0-0.568-0.031-0.922-0.096-1.061
		c-0.062-0.139-0.172-0.249-0.328-0.332c-0.154-0.083-0.441-0.121-0.859-0.116V337.103z"/>
	<path d="M114.916,342.484v2.771c0,0.535,0.033,0.871,0.1,1.01c0.064,0.139,0.18,0.249,0.346,0.332
		c0.164,0.083,0.475,0.124,0.926,0.124v0.27h-5.061v-0.27c0.457,0,0.768-0.043,0.93-0.128s0.277-0.195,0.344-0.332
		c0.064-0.136,0.098-0.471,0.098-1.006v-6.417c0-0.534-0.033-0.871-0.098-1.01c-0.066-0.139-0.182-0.249-0.348-0.331
		c-0.164-0.083-0.473-0.124-0.926-0.124v-0.271h4.594c1.195,0,2.07,0.083,2.625,0.248s1.006,0.471,1.355,0.915
		c0.352,0.445,0.525,0.967,0.525,1.564c0,0.729-0.262,1.332-0.787,1.809c-0.336,0.301-0.805,0.527-1.406,0.678l2.377,3.347
		c0.311,0.433,0.531,0.702,0.662,0.81c0.199,0.15,0.432,0.233,0.693,0.248v0.27h-3.113l-3.188-4.506H114.916z M114.916,337.635
		v4.332h0.416c0.676,0,1.182-0.062,1.516-0.187c0.336-0.124,0.6-0.348,0.793-0.671c0.191-0.323,0.287-0.745,0.287-1.265
		c0-0.754-0.176-1.311-0.529-1.67c-0.352-0.359-0.92-0.54-1.701-0.54H114.916z"/>
	<path d="M134.447,343.52l-0.371,3.471h-8.779v-0.27h0.328c0.287,0,0.518-0.052,0.693-0.153c0.125-0.068,0.223-0.185,0.291-0.35
		c0.053-0.117,0.08-0.424,0.08-0.919v-6.504c0-0.506-0.027-0.822-0.08-0.948s-0.162-0.237-0.324-0.332s-0.383-0.142-0.66-0.142
		h-0.328v-0.271h5.271v0.271h-0.43c-0.287,0-0.518,0.051-0.693,0.152c-0.125,0.068-0.225,0.186-0.299,0.351
		c-0.053,0.116-0.08,0.423-0.08,0.919v6.3c0,0.505,0.029,0.827,0.088,0.966s0.172,0.242,0.342,0.31
		c0.123,0.044,0.416,0.066,0.883,0.066h0.824c0.525,0,0.963-0.093,1.312-0.277s0.652-0.477,0.908-0.875s0.496-0.987,0.725-1.765
		H134.447z"/>
	<path d="M144.479,344.176h-3.494l-0.416,0.962c-0.135,0.321-0.203,0.586-0.203,0.795c0,0.277,0.111,0.481,0.336,0.613
		c0.131,0.077,0.453,0.136,0.969,0.175v0.27h-3.289v-0.27c0.355-0.054,0.646-0.201,0.875-0.441s0.512-0.737,0.848-1.491l3.535-7.89
		h0.139l3.566,8.108c0.34,0.769,0.619,1.252,0.838,1.451c0.166,0.15,0.398,0.238,0.699,0.263v0.27h-4.783v-0.27h0.197
		c0.385,0,0.654-0.054,0.811-0.161c0.105-0.077,0.16-0.189,0.16-0.335c0-0.088-0.016-0.178-0.045-0.27
		c-0.01-0.044-0.082-0.227-0.219-0.547L144.479,344.176z M144.23,343.636l-1.475-3.405l-1.516,3.405H144.23z"/>
	<path d="M165.172,341.748c0.938,0.219,1.596,0.483,1.975,0.794c0.545,0.442,0.818,1.017,0.818,1.722
		c0,0.743-0.299,1.358-0.898,1.845c-0.732,0.588-1.801,0.882-3.199,0.882h-5.025v-0.27c0.457,0,0.768-0.043,0.93-0.128
		c0.164-0.085,0.277-0.195,0.344-0.332c0.064-0.136,0.098-0.471,0.098-1.006v-6.417c0-0.534-0.033-0.871-0.098-1.01
		c-0.066-0.139-0.182-0.249-0.348-0.331c-0.164-0.083-0.473-0.124-0.926-0.124v-0.271h4.74c1.133,0,1.934,0.102,2.406,0.303
		c0.471,0.202,0.844,0.503,1.115,0.904s0.408,0.827,0.408,1.279c0,0.477-0.172,0.901-0.518,1.272
		C166.648,341.233,166.041,341.529,165.172,341.748z M162.518,342.119v3.172l-0.008,0.365c0,0.262,0.066,0.46,0.201,0.594
		c0.133,0.134,0.332,0.2,0.594,0.2c0.389,0,0.748-0.086,1.076-0.259c0.328-0.172,0.58-0.423,0.754-0.751
		c0.176-0.328,0.264-0.693,0.264-1.097c0-0.462-0.107-0.877-0.322-1.243c-0.213-0.367-0.508-0.624-0.881-0.77
		C163.82,342.186,163.262,342.114,162.518,342.119z M162.518,341.551c0.689,0,1.199-0.078,1.527-0.233s0.58-0.374,0.754-0.656
		c0.176-0.282,0.264-0.642,0.264-1.079s-0.086-0.796-0.26-1.075c-0.172-0.28-0.418-0.492-0.74-0.639
		c-0.32-0.146-0.836-0.216-1.545-0.211V341.551z"/>
	<path d="M184.838,342.484v2.771c0,0.535,0.033,0.871,0.1,1.01c0.064,0.139,0.18,0.249,0.346,0.332
		c0.164,0.083,0.475,0.124,0.926,0.124v0.27h-5.061v-0.27c0.457,0,0.768-0.043,0.93-0.128s0.277-0.195,0.344-0.332
		c0.064-0.136,0.098-0.471,0.098-1.006v-6.417c0-0.534-0.033-0.871-0.098-1.01c-0.066-0.139-0.182-0.249-0.348-0.331
		c-0.164-0.083-0.473-0.124-0.926-0.124v-0.271h4.594c1.195,0,2.07,0.083,2.625,0.248s1.006,0.471,1.355,0.915
		c0.352,0.445,0.525,0.967,0.525,1.564c0,0.729-0.262,1.332-0.787,1.809c-0.336,0.301-0.805,0.527-1.406,0.678l2.377,3.347
		c0.311,0.433,0.531,0.702,0.662,0.81c0.199,0.15,0.432,0.233,0.693,0.248v0.27h-3.113l-3.188-4.506H184.838z M184.838,337.635
		v4.332h0.416c0.676,0,1.182-0.062,1.516-0.187c0.336-0.124,0.6-0.348,0.793-0.671c0.191-0.323,0.287-0.745,0.287-1.265
		c0-0.754-0.176-1.311-0.529-1.67c-0.352-0.359-0.92-0.54-1.701-0.54H184.838z"/>
	<path d="M204.369,343.52l-0.373,3.471h-8.777v-0.27h0.328c0.285,0,0.518-0.052,0.691-0.153c0.127-0.068,0.225-0.185,0.293-0.35
		c0.053-0.117,0.08-0.424,0.08-0.919v-6.504c0-0.506-0.027-0.822-0.08-0.948c-0.055-0.126-0.162-0.237-0.326-0.332
		c-0.162-0.095-0.383-0.142-0.658-0.142h-0.328v-0.271h5.271v0.271h-0.43c-0.287,0-0.52,0.051-0.693,0.152
		c-0.127,0.068-0.227,0.186-0.299,0.351c-0.055,0.116-0.08,0.423-0.08,0.919v6.3c0,0.505,0.029,0.827,0.088,0.966
		c0.057,0.139,0.172,0.242,0.342,0.31c0.121,0.044,0.416,0.066,0.883,0.066h0.824c0.523,0,0.961-0.093,1.312-0.277
		c0.35-0.185,0.652-0.477,0.906-0.875c0.256-0.398,0.498-0.987,0.727-1.765H204.369z"/>
	<path d="M223.504,340.887l3.479,4.354c0.49,0.612,0.912,1.028,1.268,1.247c0.258,0.155,0.529,0.233,0.816,0.233v0.27h-5.146v-0.27
		c0.324-0.029,0.535-0.08,0.629-0.153c0.096-0.073,0.143-0.163,0.143-0.27c0-0.204-0.223-0.589-0.67-1.152l-2.268-2.851
		l-0.365,0.306v2.698c0,0.515,0.029,0.836,0.088,0.962c0.059,0.127,0.17,0.235,0.336,0.325c0.164,0.09,0.43,0.135,0.795,0.135v0.27
		h-4.988v-0.27h0.328c0.287,0,0.518-0.052,0.693-0.153c0.125-0.068,0.223-0.185,0.291-0.35c0.053-0.117,0.08-0.424,0.08-0.919
		v-6.504c0-0.506-0.027-0.822-0.08-0.948s-0.162-0.237-0.324-0.332c-0.164-0.095-0.383-0.142-0.66-0.142h-0.328v-0.271h4.922v0.271
		c-0.336,0-0.59,0.048-0.766,0.146c-0.127,0.068-0.227,0.183-0.299,0.343c-0.059,0.121-0.088,0.433-0.088,0.934v3.076l3.668-2.967
		c0.51-0.413,0.766-0.744,0.766-0.992c0-0.185-0.105-0.33-0.314-0.438c-0.105-0.054-0.371-0.087-0.795-0.102v-0.271h3.857v0.271
		c-0.344,0.024-0.615,0.086-0.812,0.186s-0.65,0.437-1.359,1.01L223.504,340.887z"/>
	<path d="M232.381,346.99v-0.27h0.328c0.287,0,0.508-0.045,0.66-0.135s0.266-0.213,0.34-0.368c0.043-0.103,0.064-0.409,0.064-0.919
		v-6.504c0-0.506-0.027-0.822-0.08-0.948s-0.162-0.237-0.324-0.332c-0.164-0.095-0.383-0.142-0.66-0.142h-0.328v-0.271h4.426
		c1.182,0,2.131,0.161,2.852,0.481c0.879,0.394,1.547,0.989,2.002,1.786c0.453,0.798,0.682,1.699,0.682,2.706
		c0,0.694-0.113,1.335-0.336,1.921c-0.225,0.586-0.514,1.069-0.867,1.451c-0.355,0.382-0.766,0.688-1.229,0.919
		c-0.465,0.23-1.033,0.409-1.703,0.535c-0.297,0.059-0.764,0.088-1.4,0.088H232.381z M236.15,337.664v7.715
		c0,0.408,0.02,0.658,0.059,0.751s0.105,0.163,0.197,0.211c0.131,0.073,0.32,0.109,0.568,0.109c0.812,0,1.432-0.276,1.859-0.831
		c0.584-0.748,0.875-1.91,0.875-3.485c0-1.269-0.199-2.282-0.598-3.04c-0.316-0.594-0.723-0.997-1.219-1.211
		C237.543,337.732,236.963,337.659,236.15,337.664z"/>
	<path d="M256.754,342.032c0,1.517-0.471,2.76-1.408,3.729s-2.16,1.454-3.668,1.454c-1.521,0-2.715-0.479-3.58-1.436
		c-0.84-0.934-1.262-2.188-1.262-3.763c0-0.107,0.008-0.248,0.023-0.423h7.291c-0.035-1.138-0.24-2.054-0.619-2.749
		c-0.486-0.909-1.238-1.363-2.254-1.363c-0.773,0-1.426,0.235-1.957,0.707c-0.533,0.472-0.873,1.094-1.018,1.866h-0.264v-3.179
		h0.264c0.125,0.418,0.34,0.627,0.641,0.627c0.141,0,0.512-0.104,1.113-0.313c0.6-0.209,1.193-0.313,1.781-0.313
		c1.43,0,2.605,0.493,3.529,1.48C256.291,339.344,256.754,340.569,256.754,342.032z M254.15,342.236h-4.682
		c0,1.347,0.082,2.299,0.248,2.858c0.316,1.05,0.963,1.574,1.939,1.574C253.318,346.669,254.15,345.191,254.15,342.236z"/>
	<path d="M271.188,337.103v0.271c-0.326,0.043-0.576,0.138-0.752,0.284c-0.242,0.204-0.627,0.761-1.15,1.67l-2.145,3.58v2.392
		c0,0.51,0.027,0.827,0.08,0.951s0.158,0.233,0.316,0.328s0.369,0.143,0.631,0.143h0.555v0.27h-5.549v-0.27h0.518
		c0.291,0,0.523-0.052,0.693-0.153c0.125-0.068,0.225-0.185,0.299-0.35c0.053-0.117,0.08-0.424,0.08-0.919v-1.983l-2.326-4.236
		c-0.463-0.836-0.787-1.328-0.977-1.477s-0.443-0.225-0.76-0.229v-0.271h4.74v0.271h-0.211c-0.287,0-0.488,0.041-0.602,0.124
		c-0.115,0.082-0.172,0.17-0.172,0.262c0,0.176,0.195,0.615,0.584,1.32l1.785,3.273l1.779-2.982c0.443-0.729,0.664-1.212,0.664-1.45
		c0-0.132-0.062-0.241-0.189-0.328c-0.166-0.122-0.469-0.194-0.912-0.219v-0.271H271.188z"/>
	<path d="M280.109,346.721v0.27h-5.17v-0.27h0.328c0.287,0,0.518-0.052,0.693-0.153c0.127-0.068,0.223-0.185,0.291-0.35
		c0.055-0.117,0.08-0.424,0.08-0.919v-6.504c0-0.506-0.025-0.822-0.08-0.948c-0.053-0.126-0.16-0.237-0.324-0.332
		c-0.162-0.095-0.383-0.142-0.66-0.142h-0.328v-0.271h5.17v0.271h-0.328c-0.287,0-0.518,0.051-0.691,0.152
		c-0.127,0.068-0.227,0.186-0.301,0.351c-0.053,0.116-0.08,0.423-0.08,0.919v6.504c0,0.506,0.029,0.821,0.084,0.947
		c0.057,0.127,0.166,0.237,0.328,0.332c0.164,0.095,0.383,0.143,0.66,0.143H280.109z M277.521,334.193
		c0.297,0,0.549,0.104,0.758,0.313s0.314,0.462,0.314,0.759c0,0.296-0.105,0.549-0.314,0.758s-0.461,0.313-0.758,0.313
		s-0.549-0.104-0.758-0.313s-0.314-0.462-0.314-0.758c0-0.297,0.105-0.55,0.314-0.759S277.225,334.193,277.521,334.193z"/>
	<path d="M289.957,340.887l3.479,4.354c0.49,0.612,0.914,1.028,1.27,1.247c0.258,0.155,0.529,0.233,0.816,0.233v0.27h-5.148v-0.27
		c0.326-0.029,0.535-0.08,0.631-0.153s0.143-0.163,0.143-0.27c0-0.204-0.225-0.589-0.672-1.152l-2.268-2.851l-0.363,0.306v2.698
		c0,0.515,0.029,0.836,0.086,0.962c0.059,0.127,0.17,0.235,0.336,0.325s0.43,0.135,0.795,0.135v0.27h-4.988v-0.27h0.328
		c0.287,0,0.52-0.052,0.693-0.153c0.127-0.068,0.225-0.185,0.291-0.35c0.055-0.117,0.082-0.424,0.082-0.919v-6.504
		c0-0.506-0.027-0.822-0.082-0.948c-0.053-0.126-0.16-0.237-0.324-0.332c-0.162-0.095-0.383-0.142-0.66-0.142h-0.328v-0.271h4.922
		v0.271c-0.334,0-0.59,0.048-0.766,0.146c-0.125,0.068-0.225,0.183-0.299,0.343c-0.057,0.121-0.086,0.433-0.086,0.934v3.076
		l3.666-2.967c0.512-0.413,0.766-0.744,0.766-0.992c0-0.185-0.104-0.33-0.312-0.438c-0.107-0.054-0.371-0.087-0.795-0.102v-0.271
		h3.857v0.271c-0.346,0.024-0.617,0.086-0.812,0.186c-0.197,0.1-0.65,0.437-1.361,1.01L289.957,340.887z"/>
	<path d="M301.293,343.774h-0.322c-0.033-0.554-0.145-1.225-0.334-2.013l-0.379-1.589c-0.229-0.953-0.344-1.636-0.344-2.049
		c0-0.375,0.111-0.676,0.336-0.904c0.223-0.229,0.516-0.343,0.875-0.343c0.35,0,0.641,0.115,0.871,0.347
		c0.23,0.23,0.346,0.523,0.346,0.878c0,0.37-0.121,1.06-0.363,2.071l-0.387,1.589C301.455,342.326,301.355,342.997,301.293,343.774z
		 M301.139,344.817c0.326,0,0.604,0.115,0.836,0.347c0.23,0.23,0.346,0.512,0.346,0.842c0,0.326-0.115,0.604-0.346,0.835
		c-0.232,0.23-0.51,0.347-0.836,0.347s-0.604-0.116-0.834-0.347s-0.348-0.509-0.348-0.835c0-0.325,0.115-0.605,0.344-0.839
		S300.809,344.817,301.139,344.817z"/>
	<g>
		<polygon id="Shape" fill="#D51F28" points="74.074,279.489 42.086,279.489 58.177,296.327 		"/>
		<polygon id="Shape_1_" fill="#D51F28" points="73.134,299.693 57.239,316.529 89.227,316.529 		"/>
		<polygon id="Shape_2_" fill="#231F20" points="77.54,279.489 42.086,316.529 53.772,316.529 89.227,279.489 		"/>
		<path id="Shape_3_" fill="#231F20" d="M236.532,311.015c-1.197,1.411-2.993,2.017-5.388,2.017c-1.396,0-2.594-0.201-3.393-0.807
			c-0.798-0.606-1.197-1.21-1.197-2.22v-11.692c0.399,0,0.798,0,1.596,0c0.601,0,1.598,0,2.595,0c2.396,0,4.389,0.604,5.587,1.815
			c1.397,1.208,1.996,2.822,1.996,4.839C238.328,307.587,237.729,309.603,236.532,311.015z M226.555,283.391c0.6,0,1.197,0,1.996,0
			c0.798,0,1.396,0,1.795,0c2.194,0,3.793,0.606,4.788,1.614c0.999,1.008,1.599,2.419,1.599,4.233c0,1.01-0.2,2.016-0.4,2.823
			c-0.199,0.807-0.598,1.613-1.198,2.219c-0.596,0.604-1.195,1.21-2.192,1.41c-0.997,0.404-1.996,0.404-3.193,0.404h-2.993v-12.704
			H226.555z M243.116,309.804c0.6-1.209,0.999-2.419,0.999-4.031c0-1.614-0.399-2.822-0.999-3.832
			c-0.598-1.008-1.396-2.014-2.394-2.622c-0.997-0.603-1.996-1.207-3.192-1.611c-1.198-0.404-2.195-0.605-3.194-0.808v-0.2
			c0.999-0.201,1.996-0.604,2.993-1.009c0.999-0.403,1.797-1.008,2.396-1.611c0.797-0.607,1.396-1.412,1.796-2.421
			c0.398-1.008,0.596-2.016,0.596-3.225c0-1.413-0.197-2.421-0.797-3.429c-0.598-1.008-1.397-1.614-2.194-2.218
			c-0.997-0.605-1.994-1.01-2.993-1.211s-2.194-0.402-3.392-0.402h-15.364v1.613c0.398,0,0.797,0,1.396,0.202
			c0.599,0.201,0.997,0.401,1.596,0.603c0.601,0.204,0.799,0.606,0.998,1.01c0.2,0.403,0.2,0.806,0.2,1.411v23.992
			c0,0.607,0,1.01-0.2,1.413c-0.199,0.402-0.6,0.605-0.998,0.807s-0.798,0.201-1.596,0.403c-0.797,0.202-1.198,0.202-1.597,0.202
			v2.016h15.765c1.395,0,2.793-0.2,3.988-0.605c1.398-0.404,2.396-1.008,3.593-1.612
			C241.521,311.82,242.319,311.015,243.116,309.804z"/>
		<path id="Shape_4_" fill="#231F20" d="M119.778,313.224c-1.762,0-2.939-0.203-3.526-0.407c-0.587-0.203-0.785-0.609-0.785-1.216
			c0-0.407,0.98-2.028,2.94-4.463c1.96-2.637,3.528-4.869,5.095-6.693c0.98,1.217,1.764,2.637,2.745,3.854
			c0.979,1.42,1.764,2.636,2.351,3.65c0.587,1.016,1.176,1.825,1.567,2.436c0.392,0.81,0.589,1.217,0.589,1.42
			c0,0.403-0.392,0.81-1.371,1.013c-0.785,0.204-1.96,0.407-3.332,0.407v1.622h17.05v-1.622c-0.392,0-0.98,0-1.765-0.203
			c-0.588,0-1.177-0.204-1.567-0.407c-0.391-0.201-0.979-0.606-1.568-1.42c-0.587-0.606-1.372-1.42-1.764-2.026
			c-1.568-2.029-3.136-4.26-4.9-6.493c-1.566-2.229-3.134-4.258-4.505-6.083c1.566-2.029,2.938-3.854,4.114-5.274
			c0.979-1.42,2.155-2.84,3.528-4.463c0.783-0.812,1.372-1.624,1.763-2.027c0.392-0.406,1.177-0.812,1.961-1.219
			c0.392-0.201,0.98-0.406,1.762-0.406c0.785,0,1.177-0.201,1.764-0.201v-1.826h-13.521v1.623c1.567,0,2.547,0.203,3.134,0.404
			c0.589,0.205,0.98,0.608,0.98,1.219c0,0.607-0.782,1.826-2.154,3.853c-1.371,2.028-3.136,4.059-4.9,6.492
			c-0.979-1.42-1.96-2.639-2.743-3.652c-0.783-1.013-1.37-2.026-1.959-3.043c-0.59-0.81-0.981-1.623-1.569-2.433
			c-0.392-0.811-0.587-1.217-0.587-1.623s0.587-0.812,1.566-1.014c0.98-0.203,2.158-0.406,3.139-0.406v-1.42h-16.855v1.623
			c0.393,0,0.979,0,1.764,0.203c0.784,0,1.371,0.201,1.765,0.406c0.783,0.201,1.174,0.607,1.763,1.014
			c0.391,0.406,0.979,1.014,1.763,2.026c1.765,2.435,3.332,4.465,4.9,6.696c1.569,2.028,2.743,3.854,3.723,5.069
			c-1.37,1.624-2.742,3.65-4.505,5.68c-1.767,2.029-3.138,3.855-4.118,5.275c-0.587,0.606-0.978,1.217-1.564,1.825
			c-0.589,0.608-1.178,1.015-2.158,1.42c-0.587,0.404-1.174,0.404-1.961,0.608c-0.587,0-1.174,0.203-1.763,0.203v1.622h13.522
			v-1.622H119.778z"/>
		<path id="Shape_5_" fill="#231F20" d="M262.138,308.913c-0.593,0.818-1.584,1.432-2.376,2.047c-0.99,0.612-1.98,0.817-3.17,0.817
			c-1.188,0-1.979-0.205-2.772-1.022c-0.792-0.615-1.188-1.637-1.188-2.865c0-1.022,0.197-1.843,0.794-2.658
			c0.593-0.82,1.188-1.434,1.979-1.841c0.991-0.615,1.982-1.025,2.972-1.434c0.99-0.409,2.376-0.819,3.763-1.228V308.913z
			 M271.052,313.413v-1.228c-2.971,0-4.159-1.636-4.159-3.067v-11.662c0-1.636,0-6.342-5.545-7.569
			c-0.992-0.205-5.944-1.021-9.706,1.433c-0.792,0.613-1.586,1.022-2.179,1.841c-0.596,0.614-0.794,1.433-0.794,2.25
			c0,2.046,1.586,2.66,2.575,2.66c3.764,0,3.17-3.068,2.97-3.683c-0.196-0.613-0.395-1.228-0.395-1.636
			c0.198-0.205,1.387-1.229,3.566-1.229c3.962,0,4.752,3.07,4.752,5.117v2.454c-0.79,0.408-2.376,1.022-4.752,1.636
			c-2.772,0.818-8.12,1.841-9.509,5.728c-0.197,0.615-0.397,1.433-0.397,2.456c0,1.432,0.598,3.067,1.786,4.297
			c1.188,1.021,2.772,1.636,4.752,1.636c4.754,0,7.13-2.455,8.12-3.479h0.199c0.197,1.023,0.792,2.046,1.586,2.659
			c0.789,0.615,1.78,0.819,3.167,0.819c0.792,0,1.386,0,1.981-0.204C269.468,314.026,270.26,313.821,271.052,313.413z"/>
		<path id="Shape_6_" fill="#231F20" d="M161.196,309.069c-0.589,0.826-1.568,1.444-2.354,2.065
			c-0.983,0.618-1.964,0.822-3.144,0.822c-1.179,0-1.964-0.204-2.749-1.031c-0.786-0.619-1.179-1.649-1.179-2.887
			c0-1.03,0.196-1.856,0.784-2.681c0.591-0.824,1.18-1.444,1.965-1.856c0.982-0.619,1.966-1.032,2.947-1.443
			c1.177-0.414,2.357-0.824,3.729-1.238V309.069z M170.037,313.608v-1.237c-2.946,0-4.126-1.65-4.126-3.095v-11.756
			c0-1.648,0-6.394-5.498-7.63c-0.982-0.207-5.894-1.032-9.624,1.441c-0.787,0.619-1.573,1.033-2.162,1.856
			c-0.589,0.618-0.786,1.445-0.786,2.27c0,2.062,1.573,2.682,2.555,2.682c3.731,0,3.143-3.096,2.946-3.714
			c-0.196-0.619-0.393-1.237-0.393-1.648c0-0.619,1.178-1.445,3.34-1.445c3.928,0,4.714,3.094,4.714,5.159v2.474
			c-0.786,0.412-2.359,1.03-4.714,1.648c-2.751,0.826-8.053,1.856-9.428,5.776c-0.198,0.619-0.395,1.443-0.395,2.475
			c0,1.442,0.589,3.093,1.77,4.331c1.178,1.032,2.749,1.65,4.713,1.65c4.715,0,7.07-2.475,8.054-3.506h0.193
			c0.198,1.031,0.787,2.062,1.573,2.681c0.786,0.619,1.767,0.825,3.142,0.825c0.786,0,1.375,0,1.964-0.206
			C168.466,314.228,169.25,314.021,170.037,313.608z"/>
		<path id="Shape_7_" fill="#231F20" d="M175.039,283.361v27.368c0,2.06-2.116,2.47-3.655,2.47v1.646h12.121v-1.646
			c-1.731,0-3.846-0.41-3.846-2.47v-32.511l-0.388-0.412l-9.234,0.412v1.44C174.848,279.659,175.039,281.923,175.039,283.361z"/>
		<path id="Shape_8_" fill="#231F20" d="M323.832,309.028c-0.779-1.028-7.611-10.7-7.611-10.7l4.488-4.322
			c0,0,3.318-3.087,5.66-3.087v-1.646h-9.953v1.646c1.949,0,2.537,0.618,2.73,1.028c0.393,1.031-1.17,2.471-1.17,2.471
			s-5.271,5.35-6.637,6.79v-24.897l-0.391-0.412l-9.369,0.412v1.646c4.881,0,5.074,2.263,5.074,3.703v27.161
			c0,2.06-2.145,2.469-3.707,2.469v1.648h12.297v-1.648c-1.758,0-3.711-0.409-3.711-2.469v-5.968l1.953-1.85
			c0.586,0.821,8.004,11.935,8.004,11.935h7.025v-1.648C325.393,311.29,324.416,310.058,323.832,309.028z"/>
		<path id="Shape_9_" fill="#231F20" d="M204.27,309.681c-0.608,0.602-1.42,1.204-2.232,1.606s-2.031,0.804-3.249,0.804
			c-1.42,0-2.639-0.2-3.652-0.804c-1.016-0.604-1.826-1.205-2.437-2.21c-0.608-1.004-1.217-2.008-1.42-3.013
			c-0.204-1.004-0.407-2.21-0.407-3.617c0-3.416,0.61-6.025,2.032-7.833c1.419-1.81,3.044-2.812,5.276-2.812
			c1.014,0,1.825,0.2,2.436,0.4c0.608,0.201,1.218,0.602,1.828,1.004c0.405,0.403,0.812,0.805,1.217,1.206
			c0.405,0.399,0.608,1.004,0.608,1.205V309.681z M210.562,322.737c-0.406-0.202-0.812-0.4-1.017-0.803
			c-0.2-0.403-0.405-0.805-0.405-1.407V298.43c0-1.205,0-2.812,0.205-4.418c0.2-1.607,0.2-3.015,0.2-4.219l-1.419-0.2l-2.232,3.013
			c-0.205-0.201-0.61-0.402-1.219-0.803c-0.609-0.403-1.015-0.604-1.625-0.806c-0.606-0.201-1.42-0.4-2.231-0.602
			c-0.813-0.201-1.827-0.201-3.045-0.201c-1.625,0-3.045,0.402-4.67,0.803c-1.622,0.604-2.84,1.407-4.059,2.411
			c-1.219,1.005-2.03,2.412-2.844,3.816c-0.606,1.407-1.013,3.015-1.013,4.821c0,1.809,0.406,3.618,1.013,5.224
			c0.612,1.606,1.422,2.812,2.438,4.018c1.014,1.004,2.231,2.008,3.653,2.411c1.422,0.602,2.842,0.803,4.467,0.803
			c1.014,0,1.825,0,2.434-0.201c0.611-0.2,1.422-0.4,2.03-0.803c0.609-0.202,1.22-0.604,1.625-1.005
			c0.607-0.401,1.015-0.602,1.217-1.004h0.203v9.24c0,0.603-0.203,1.004-0.405,1.407c-0.203,0.399-0.608,0.602-1.22,0.803
			c-0.405,0-0.811,0.199-1.42,0.199c-0.608,0-1.014,0-1.624,0.202v1.607h14.209v-1.607c-0.405,0-1.014-0.202-1.624-0.202
			C211.578,323.138,211.171,322.938,210.562,322.737z"/>
		<path id="Shape_10_" fill="#231F20" d="M288.885,311.562v1.599h12.473v-1.599c-1.637,0-3.887-0.398-3.887-2.396v-12.186
			c0-2.196-0.408-3.994-1.633-5.392c-1.229-1.397-2.66-1.997-5.521-1.997c-4.09,0-7.564,3.596-7.973,3.994h-0.205v-3.395
			l-0.41-0.401l-8.993,0.599v1.399c3.679,0,4.497,1.597,4.497,3.196v9.986v4.396c0,1.998-2.249,2.397-3.885,2.397v1.396h12.471
			v-1.599c-1.635,0-3.68-0.398-3.68-2.396v-13.383c1.023-1.597,2.861-3.397,5.928-3.397c2.25,0,4.295,1.6,4.295,5.196v11.784
			C292.564,311.164,290.725,311.562,288.885,311.562z"/>
	</g>
	<path d="M177.326,346.721v0.27h-5.17v-0.27h0.328c0.287,0,0.518-0.052,0.693-0.153c0.127-0.068,0.223-0.185,0.291-0.35
		c0.055-0.117,0.08-0.424,0.08-0.919v-6.504c0-0.506-0.025-0.822-0.08-0.948c-0.053-0.126-0.16-0.237-0.324-0.332
		c-0.162-0.095-0.383-0.142-0.66-0.142h-0.328v-0.271h5.17v0.271h-0.328c-0.287,0-0.518,0.051-0.691,0.152
		c-0.127,0.068-0.227,0.186-0.301,0.351c-0.053,0.116-0.08,0.423-0.08,0.919v6.504c0,0.506,0.029,0.821,0.084,0.947
		c0.057,0.127,0.166,0.237,0.328,0.332c0.164,0.095,0.383,0.143,0.66,0.143H177.326z M174.738,334.193
		c0.297,0,0.549,0.104,0.758,0.313s0.314,0.462,0.314,0.759c0,0.296-0.105,0.549-0.314,0.758s-0.461,0.313-0.758,0.313
		s-0.549-0.104-0.758-0.313s-0.314-0.462-0.314-0.758c0-0.297,0.105-0.55,0.314-0.759S174.441,334.193,174.738,334.193z"/>
	<path d="M213.646,346.721v0.27h-5.17v-0.27h0.328c0.287,0,0.518-0.052,0.693-0.153c0.127-0.068,0.223-0.185,0.291-0.35
		c0.055-0.117,0.08-0.424,0.08-0.919v-6.504c0-0.506-0.025-0.822-0.08-0.948c-0.053-0.126-0.16-0.237-0.324-0.332
		c-0.162-0.095-0.383-0.142-0.66-0.142h-0.328v-0.271h5.17v0.271h-0.328c-0.287,0-0.518,0.051-0.691,0.152
		c-0.127,0.068-0.227,0.186-0.301,0.351c-0.053,0.116-0.08,0.423-0.08,0.919v6.504c0,0.506,0.029,0.821,0.084,0.947
		c0.057,0.127,0.166,0.237,0.328,0.332c0.164,0.095,0.383,0.143,0.66,0.143H213.646z M211.058,334.193
		c0.297,0,0.549,0.104,0.758,0.313s0.314,0.462,0.314,0.759c0,0.296-0.105,0.549-0.314,0.758s-0.461,0.313-0.758,0.313
		s-0.549-0.104-0.758-0.313s-0.314-0.462-0.314-0.758c0-0.297,0.105-0.55,0.314-0.759S210.761,334.193,211.058,334.193z"/>
</g>
</svg>
